<svg xmlns="http://www.w3.org/2000/svg" width="1600" height="200" viewBox="0 0 1600 200"><rect width="100%" height="100%" fill="#DDDDDD"/><path fill="#999999" d="M580.425 126.9h13v9.25h-40v-9.25h14.65V84.75q0-2.5.15-5.15l-10.4 8.7q-.9.7-1.78.87-.87.18-1.65.03-.77-.15-1.37-.53-.6-.37-.9-.82l-3.9-5.35 22.05-18.75h10.15v63.15Zm66.8-63.05-21.45 26.25-2.5 3.1q2.1-1.05 4.52-1.63 2.43-.57 5.23-.57 4.1 0 7.97 1.35 3.88 1.35 6.83 4.07 2.95 2.73 4.75 6.78 1.8 4.05 1.8 9.45 0 5.05-1.85 9.47-1.85 4.43-5.2 7.73-3.35 3.3-8.08 5.2-4.72 1.9-10.42 1.9-5.8 0-10.4-1.85-4.6-1.85-7.85-5.18-3.25-3.32-4.98-8-1.72-4.67-1.72-10.37 0-5.1 2.07-10.48 2.08-5.37 6.43-11.17l17.25-23.15q.9-1.2 2.62-2.05 1.73-.85 3.98-.85h11Zm-18.65 63q2.95 0 5.42-1 2.48-1 4.25-2.8 1.78-1.8 2.78-4.22 1-2.43 1-5.28 0-3.1-.95-5.58-.95-2.47-2.7-4.2-1.75-1.72-4.2-2.62-2.45-.9-5.4-.9t-5.35 1q-2.4 1-4.1 2.77-1.7 1.78-2.65 4.2-.95 2.43-.95 5.23 0 3 .82 5.47.83 2.48 2.45 4.23 1.63 1.75 4.03 2.72 2.4.98 5.55.98Zm84.6-26.85q0 9.45-2.03 16.42-2.02 6.98-5.6 11.53-3.57 4.55-8.45 6.77-4.87 2.23-10.52 2.23-5.65 0-10.48-2.23-4.82-2.22-8.37-6.77-3.55-4.55-5.55-11.53-2-6.97-2-16.42 0-9.5 2-16.45 2-6.95 5.55-11.5t8.37-6.78q4.83-2.22 10.48-2.22t10.52 2.22q4.88 2.23 8.45 6.78 3.58 4.55 5.6 11.5 2.03 6.95 2.03 16.45Zm-12.75 0q0-7.85-1.15-13t-3.08-8.2q-1.92-3.05-4.42-4.28-2.5-1.22-5.2-1.22-2.65 0-5.13 1.22-2.47 1.23-4.37 4.28-1.9 3.05-3.03 8.2-1.12 5.15-1.12 13t1.12 13q1.13 5.15 3.03 8.2 1.9 3.05 4.37 4.27 2.48 1.23 5.13 1.23 2.7 0 5.2-1.23 2.5-1.22 4.42-4.27 1.93-3.05 3.08-8.2 1.15-5.15 1.15-13Zm70.75 0q0 9.45-2.03 16.42-2.02 6.98-5.6 11.53-3.57 4.55-8.45 6.77-4.87 2.23-10.52 2.23-5.65 0-10.48-2.23-4.82-2.22-8.37-6.77-3.55-4.55-5.55-11.53-2-6.97-2-16.42 0-9.5 2-16.45 2-6.95 5.55-11.5t8.37-6.78q4.83-2.22 10.48-2.22t10.52 2.22q4.88 2.23 8.45 6.78 3.58 4.55 5.6 11.5 2.03 6.95 2.03 16.45Zm-12.75 0q0-7.85-1.15-13t-3.08-8.2q-1.92-3.05-4.42-4.28-2.5-1.22-5.2-1.22-2.65 0-5.13 1.22-2.47 1.23-4.37 4.28-1.9 3.05-3.03 8.2-1.12 5.15-1.12 13t1.12 13q1.13 5.15 3.03 8.2 1.9 3.05 4.37 4.27 2.48 1.23 5.13 1.23 2.7 0 5.2-1.23 2.5-1.22 4.42-4.27 1.93-3.05 3.08-8.2 1.15-5.15 1.15-13Zm92.15 19.6-6.55 6.45-16.95-16.95-17.1 17.05-6.55-6.45 17.1-17.15-16.3-16.3 6.5-6.5 16.3 16.3 16.2-16.2 6.6 6.5-16.25 16.25 17 17Zm60.2 5.05h18.55q2 0 3.17 1.12 1.18 1.13 1.18 2.98v7.4h-49.6v-4.1q0-1.25.52-2.63.53-1.37 1.68-2.47l21.95-22q2.75-2.8 4.92-5.35 2.18-2.55 3.63-5.05 1.45-2.5 2.22-5.08.78-2.57.78-5.42 0-2.6-.75-4.58-.75-1.97-2.13-3.32-1.37-1.35-3.3-2.03-1.92-.67-4.32-.67-2.2 0-4.08.62-1.87.63-3.32 1.75-1.45 1.13-2.45 2.63-1 1.5-1.5 3.3-.85 2.3-2.2 3.05t-3.9.35l-6.5-1.15q.75-5.2 2.9-9.13 2.15-3.92 5.37-6.55 3.23-2.62 7.4-3.95 4.18-1.32 8.98-1.32 5 0 9.15 1.47 4.15 1.48 7.1 4.18 2.95 2.7 4.6 6.5 1.65 3.8 1.65 8.45 0 4-1.18 7.4-1.17 3.4-3.15 6.5-1.97 3.1-4.62 6-2.65 2.9-5.55 5.9l-16.3 16.65q2.35-.7 4.67-1.08 2.33-.37 4.43-.37Zm83-24.65q0 9.45-2.03 16.42-2.02 6.98-5.6 11.53-3.57 4.55-8.45 6.77-4.87 2.23-10.52 2.23-5.65 0-10.48-2.23-4.82-2.22-8.37-6.77-3.55-4.55-5.55-11.53-2-6.97-2-16.42 0-9.5 2-16.45 2-6.95 5.55-11.5t8.37-6.78q4.83-2.22 10.48-2.22t10.52 2.22q4.88 2.23 8.45 6.78 3.58 4.55 5.6 11.5 2.03 6.95 2.03 16.45Zm-12.75 0q0-7.85-1.15-13t-3.08-8.2q-1.92-3.05-4.42-4.28-2.5-1.22-5.2-1.22-2.65 0-5.13 1.22-2.47 1.23-4.37 4.28-1.9 3.05-3.03 8.2-1.12 5.15-1.12 13t1.12 13q1.13 5.15 3.03 8.2 1.9 3.05 4.37 4.27 2.48 1.23 5.13 1.23 2.7 0 5.2-1.23 2.5-1.22 4.42-4.27 1.93-3.05 3.08-8.2 1.15-5.15 1.15-13Zm70.75 0q0 9.45-2.03 16.42-2.02 6.98-5.6 11.53-3.57 4.55-8.45 6.77-4.87 2.23-10.52 2.23-5.65 0-10.48-2.23-4.82-2.22-8.37-6.77-3.55-4.55-5.55-11.53-2-6.97-2-16.42 0-9.5 2-16.45 2-6.95 5.55-11.5t8.37-6.78q4.83-2.22 10.48-2.22t10.52 2.22q4.88 2.23 8.45 6.78 3.58 4.55 5.6 11.5 2.03 6.95 2.03 16.45Zm-12.75 0q0-7.85-1.15-13t-3.08-8.2q-1.92-3.05-4.42-4.28-2.5-1.22-5.2-1.22-2.65 0-5.13 1.22-2.47 1.23-4.37 4.28-1.9 3.05-3.03 8.2-1.12 5.15-1.12 13t1.12 13q1.13 5.15 3.03 8.2 1.9 3.05 4.37 4.27 2.48 1.23 5.13 1.23 2.7 0 5.2-1.23 2.5-1.22 4.42-4.27 1.93-3.05 3.08-8.2 1.15-5.15 1.15-13Z"/></svg>